<?xml version="1.0" standalone="no"?>
<!DOCTYPE svg PUBLIC "-//W3C//DTD SVG 20010904//EN"
 "http://www.w3.org/TR/2001/REC-SVG-20010904/DTD/svg10.dtd">
<svg version="1.0" xmlns="http://www.w3.org/2000/svg"
 width="50.000000pt" height="50.000000pt" viewBox="0 0 50.000000 50.000000"
 preserveAspectRatio="xMidYMid meet">

<g transform="translate(0.000000,50.000000) scale(0.100000,-0.100000)"
fill="#000000" stroke="none">
<path d="M236 491 c-3 -5 -3 -16 0 -24 4 -11 -4 -17 -28 -22 -18 -4 -47 -16
-64 -26 -28 -17 -33 -17 -38 -4 -3 8 -12 15 -21 15 -19 0 -20 -29 0 -36 13 -5
13 -10 -4 -38 -10 -17 -22 -46 -26 -63 -5 -26 -11 -32 -28 -30 -14 1 -22 -4
-22 -13 0 -10 8 -14 22 -13 18 2 23 -4 29 -32 3 -19 15 -47 27 -61 19 -24 19
-27 4 -36 -10 -5 -17 -16 -17 -23 0 -20 27 -19 38 2 9 15 12 15 36 -4 14 -12
42 -24 61 -27 28 -6 34 -11 32 -29 -1 -14 3 -22 13 -22 9 0 14 8 13 22 -2 17
4 23 30 29 17 3 45 16 61 27 26 18 29 19 38 4 5 -10 16 -17 23 -17 19 0 19 27
0 37 -12 7 -11 16 10 57 14 27 25 55 25 63 0 7 9 12 23 10 14 -1 22 3 22 13 0
10 -8 14 -22 13 -18 -2 -23 4 -29 32 -3 19 -15 47 -27 61 -19 24 -19 27 -4 36
21 11 22 38 2 38 -7 0 -18 -7 -23 -17 -9 -15 -12 -15 -36 4 -14 12 -42 24 -61
27 -28 6 -34 11 -32 28 2 22 -17 36 -27 19z m4 -110 c0 -42 -3 -51 -21 -56
-16 -6 -30 1 -57 29 l-36 35 45 20 c65 30 69 28 69 -28z m89 28 l45 -20 -36
-35 c-27 -28 -41 -35 -57 -29 -18 5 -21 14 -21 56 0 56 4 58 69 28z m-154
-128 c-5 -18 -14 -21 -56 -21 -56 0 -58 4 -28 69 l20 45 35 -36 c28 -27 35
-41 29 -57z m235 47 c29 -63 27 -68 -29 -68 -42 0 -51 3 -56 21 -5 16 1 30 26
55 18 19 35 34 36 34 2 0 13 -19 23 -42z m-120 -38 c11 -11 20 -29 20 -40 0
-26 -34 -60 -60 -60 -26 0 -60 34 -60 60 0 11 9 29 20 40 11 11 29 20 40 20
11 0 29 -9 40 -20z m-115 -71 c6 -16 -1 -30 -29 -57 l-35 -36 -20 45 c-30 65
-28 69 28 69 42 0 51 -3 56 -21z m255 9 c0 -7 -10 -33 -21 -57 l-20 -45 -35
36 c-28 27 -35 41 -29 57 5 18 14 21 56 21 33 0 49 -4 49 -12z m-206 -54 c12
-4 16 -20 16 -55 0 -56 -4 -58 -69 -29 l-44 21 33 34 c36 37 39 39 64 29z
m116 -29 l33 -34 -44 -21 c-24 -11 -50 -20 -56 -20 -18 0 -18 96 0 103 24 10
34 6 67 -28z"/>
<path d="M224 266 c-10 -26 4 -48 28 -44 17 2 23 10 23 28 0 18 -6 26 -23 28
-13 2 -25 -3 -28 -12z"/>
</g>
</svg>
