<?xml version="1.0" standalone="no"?>
<!DOCTYPE svg PUBLIC "-//W3C//DTD SVG 20010904//EN"
 "http://www.w3.org/TR/2001/REC-SVG-20010904/DTD/svg10.dtd">
<svg version="1.0" xmlns="http://www.w3.org/2000/svg"
 width="30.000000pt" height="30.000000pt" viewBox="0 0 30.000000 30.000000"
 preserveAspectRatio="xMidYMid meet">

<g transform="translate(0.000000,30.000000) scale(0.100000,-0.100000)"
fill="#000000" stroke="none">
<path d="M176 261 c-4 -5 -2 -12 3 -15 5 -4 12 -2 15 3 4 5 2 12 -3 15 -5 4
-12 2 -15 -3z"/>
<path d="M140 233 c0 -31 59 -53 89 -34 22 14 3 31 -29 24 -18 -3 -36 0 -45 7
-8 7 -15 8 -15 3z"/>
<path d="M73 203 c-25 -9 -13 -22 16 -17 27 6 58 -15 35 -23 -34 -12 -38 -22
-20 -42 37 -40 -14 -72 -56 -34 -25 22 -23 -2 2 -27 29 -29 68 -26 87 8 18 31
80 75 94 66 10 -6 12 -35 3 -58 -7 -19 -35 -21 -52 -4 -7 7 -12 8 -12 2 0 -17
23 -34 46 -34 47 0 72 81 36 113 -25 23 -41 21 -72 -8 -31 -30 -60 -21 -39 13
22 36 -21 65 -68 45z"/>
</g>
</svg>
