<?xml version="1.0" standalone="no"?>
<!DOCTYPE svg PUBLIC "-//W3C//DTD SVG 20010904//EN"
 "http://www.w3.org/TR/2001/REC-SVG-20010904/DTD/svg10.dtd">
<svg version="1.0" xmlns="http://www.w3.org/2000/svg"
 width="30.000000pt" height="30.000000pt" viewBox="0 0 30.000000 30.000000"
 preserveAspectRatio="xMidYMid meet">

<g transform="translate(0.000000,30.000000) scale(0.100000,-0.100000)"
fill="#000000" stroke="none">
<path d="M127 250 c-15 -25 -24 -30 -58 -30 -44 0 -45 -1 -22 -41 16 -27 16
-31 0 -58 -23 -40 -22 -41 22 -41 34 0 43 -5 58 -30 9 -16 20 -30 23 -30 3 0
14 14 23 30 15 25 24 30 58 30 44 0 45 1 22 41 -16 27 -16 31 0 58 23 40 22
41 -22 41 -34 0 -43 5 -58 30 -9 17 -20 30 -23 30 -3 0 -14 -13 -23 -30z m38
-20 c3 -5 -3 -10 -15 -10 -12 0 -18 5 -15 10 3 6 10 10 15 10 5 0 12 -4 15
-10z m-75 -39 c0 -17 -18 -21 -24 -6 -3 9 0 15 9 15 8 0 15 -4 15 -9z m106
-16 c15 -23 15 -27 0 -50 -11 -17 -26 -25 -46 -25 -20 0 -35 8 -46 25 -15 23
-15 27 0 50 11 17 26 25 46 25 20 0 35 -8 46 -25z m38 10 c-4 -8 -10 -12 -15
-9 -14 8 -10 24 6 24 9 0 12 -6 9 -15z m-144 -76 c0 -5 -7 -9 -15 -9 -9 0 -12
6 -9 15 6 15 24 11 24 -6z m139 -8 c-15 -5 -22 6 -14 19 6 9 10 9 16 -1 5 -8
4 -15 -2 -18z m-67 -33 c-9 -9 -15 -9 -24 0 -9 9 -7 12 12 12 19 0 21 -3 12
-12z"/>
</g>
</svg>
